# xmcd
#
# Track frame offsets: 
#        150
#        18149
#        31210
#
# Disc length: 607 seconds
#
# Revision: 0
# Processed by: cddbd v1.5.2PL0 Copyright (c) Steve Scherf et al.
# Submitted via: ExactAudioCopy v0.99pb1
#
DISCID=14025d03
DTITLE=Jessica Robinson - Jessica Robinson
DYEAR=1999
DGENRE=Country
TTITLE0=Story of My Life
TTITLE1=Sittin' on a Goldmine
TTITLE2=Until I Met You
EXTD=
EXTT0=
EXTT1=
EXTT2=
PLAYORDER=
